<svg id="Layer_1" data-name="Layer 1" xmlns="http://www.w3.org/2000/svg" xmlns:xlink="http://www.w3.org/1999/xlink" viewBox="0 0 264.212 264.212">
  <defs>
    <style>
      .cls-1 {
        fill: none;
      }

      .cls-2 {
        isolation: isolate;
      }

      .cls-3 {
        clip-path: url(#clip-path);
      }

      .cls-4 {
        fill: #211914;
      }
    </style>
    <clipPath id="clip-path" transform="translate(34.673 -27.301)">
      <rect class="cls-1" x="-34.673" y="27.301" width="264.212" height="264.212"/>
    </clipPath>
  </defs>
  <title>Comp CC AssetsvgWrapper</title>
  <g class="cls-2">
    <g class="cls-3">
      <g class="cls-3">
        <path class="cls-4" d="M180.079,236.875a7.944,7.944,0,0,0-12.207-2.378,9.883,9.883,0,0,0-1.585,1.955V116.13l-.159-4.862A66.36,66.36,0,0,0,146.789,69.1a66.38,66.38,0,0,0-21.137-14.267,5.877,5.877,0,0,0-.846-.37c-.264-.159-.528-.317-.951-.528a10.78,10.78,0,0,1-3.963-3.593c-2.166-3.171-3.963-6.235-7.292-8.243a24.231,24.231,0,0,0-9.406-3.171v-.211a18.331,18.331,0,0,0-.318-3.54,4.4,4.4,0,0,0-2.694-7.821,4.433,4.433,0,0,0-2.748,7.874,18.375,18.375,0,0,0-.317,3.54v.211A23.658,23.658,0,0,0,87.71,42.15c-3.329,2.061-5.126,5.126-7.292,8.243a10.34,10.34,0,0,1-3.963,3.593,6.855,6.855,0,0,0-.951.528,5.873,5.873,0,0,1-.845.37A65.222,65.222,0,0,0,53.521,69.153,66.652,66.652,0,0,0,39.254,90.29a65.886,65.886,0,0,0-5.073,21.031l-.159,4.862V236.558a8.273,8.273,0,0,0-1.585-1.955A7.931,7.931,0,0,0,20.23,236.98a8.9,8.9,0,0,0-.105,7.345,13.689,13.689,0,0,0,4.914,6.024A46.892,46.892,0,0,0,31.8,254.1c2.431,1.215,4.861,2.536,7.134,3.963a28.453,28.453,0,0,1,10.2,10.886,15,15,0,0,1,.159,13.263,10.1,10.1,0,0,1-10.251,5.443,9.1,9.1,0,0,1-7.028-7.239c-.793-3.54.845-7.556,4.385-8.825,2.853-1.057,6.764.687,6.976,3.963a2.936,2.936,0,0,1-2.273,3.276,1.546,1.546,0,0,1-1.744-2.114,1.836,1.836,0,0,0-1.268-2.272,1.912,1.912,0,0,0-2.273,1.321,5.269,5.269,0,0,0,2.589,6.288,5.985,5.985,0,0,0,7.028-1.48,7.333,7.333,0,0,0,1.268-7.239,9.1,9.1,0,0,0-5.02-5.073c-4.756-2.008-10.2.793-12.312,5.231a13.05,13.05,0,0,0,2.747,14.532,12.211,12.211,0,0,0,13.263,2.536,14.682,14.682,0,0,0,8.878-10.886,20.147,20.147,0,0,0-2.589-14.056,5.847,5.847,0,0,0,1-.106c1.955-.423,5.6-2.114,7.292-.317a2.433,2.433,0,0,1,.053,3.593,3.561,3.561,0,0,1-.74.476c.053-.106.053-.159.106-.211a2.457,2.457,0,0,0-.106-2.484,2.282,2.282,0,0,0-2.536-.951,2.387,2.387,0,0,0-1.691,2.114,2.087,2.087,0,0,0,.212,1.11A3.8,3.8,0,0,0,56,270.113c2.96,3.171,8.244-1.849,5.813-5.284-2.906-4.016-7.4-.581-11.15-.9a25.259,25.259,0,0,0-2.061-2.642,1.834,1.834,0,0,1-.528-.581c-.581-.581-1.11-1.163-1.744-1.691a3.946,3.946,0,0,1,1.9-3.276,4.107,4.107,0,0,1,6.236,2.43,5.72,5.72,0,0,1-1.691,1.849c-.053,0-.106.053-.158.053a2.425,2.425,0,0,0,.369-1.9,2.82,2.82,0,0,0-2.959-1.9,2.976,2.976,0,0,0-2.43,2.43,2.378,2.378,0,0,0,.475,2.009,5.216,5.216,0,0,1,.528.581,4.188,4.188,0,0,0,3.488.845c2.325-.581,4.914-5.5,5.5-6.341a5.218,5.218,0,0,1,2.589-2.219h3.488a23.3,23.3,0,0,1,7.451,3.646,22.166,22.166,0,0,1,4.015,3.276c1.11,1.163,2.642,2.484,4.227,1.373a2.406,2.406,0,0,0,.9-2.694,2.221,2.221,0,0,0-2.906-1.427,2.257,2.257,0,0,1,.845-1.585,2.54,2.54,0,0,1,2.96-.053,13.822,13.822,0,0,1,3.117,2.959,16.975,16.975,0,0,0,2.853,2.642A10.331,10.331,0,0,0,95,263.877a7.378,7.378,0,0,0,5.179-3.646,7.27,7.27,0,0,0,5.178,3.646,10.552,10.552,0,0,0,7.874-2.167,19.255,19.255,0,0,0,2.853-2.642,15.091,15.091,0,0,1,3.118-2.959,2.63,2.63,0,0,1,2.959.053,2.472,2.472,0,0,1,.846,1.585,2.184,2.184,0,0,0-2.906,1.427,2.432,2.432,0,0,0,.9,2.694c1.639,1.11,3.171-.264,4.227-1.373a29.353,29.353,0,0,1,4.017-3.276,24.427,24.427,0,0,1,7.45-3.646h3.488a5.217,5.217,0,0,1,2.589,2.219c.528.9,3.171,5.76,5.5,6.341,2.114.476,4.967-1.057,4.544-3.487a2.916,2.916,0,0,0-2.378-2.431,2.782,2.782,0,0,0-2.959,1.9,2.423,2.423,0,0,0,.37,1.9c-.053,0-.106-.052-.159-.052a5.716,5.716,0,0,1-1.69-1.849,4.107,4.107,0,0,1,6.235-2.431,3.945,3.945,0,0,1,1.9,3.276,32.515,32.515,0,0,0-4.386,4.968c-3.8.317-8.243-3.171-11.149.9-2.484,3.488,2.8,8.508,5.813,5.284a3.362,3.362,0,0,0,.739-1.268,1.914,1.914,0,0,0,.212-1.11,2.306,2.306,0,0,0-4.227-1.163,2.458,2.458,0,0,0-.106,2.484.271.271,0,0,0,.106.211,3.538,3.538,0,0,1-.74-.475,2.475,2.475,0,0,1,.053-3.593c1.744-1.8,5.337-.106,7.292.317a7.214,7.214,0,0,0,1,.106,20.1,20.1,0,0,0-2.589,14.056,14.681,14.681,0,0,0,8.877,10.886,12.174,12.174,0,0,0,13.263-2.536,13.067,13.067,0,0,0,2.748-14.532c-2.166-4.439-7.609-7.239-12.312-5.231a8.948,8.948,0,0,0-5.02,5.073,7.356,7.356,0,0,0,1.269,7.239,6,6,0,0,0,7.028,1.48,5.355,5.355,0,0,0,2.589-6.288,1.911,1.911,0,0,0-2.272-1.321,1.835,1.835,0,0,0-1.268,2.272,1.544,1.544,0,0,1-1.744,2.114,2.935,2.935,0,0,1-2.272-3.276c.212-3.329,4.017-5.073,6.975-3.963,3.541,1.268,5.179,5.284,4.386,8.825a9.026,9.026,0,0,1-7.028,7.239,10.138,10.138,0,0,1-10.251-5.443,15,15,0,0,1,.159-13.263,27.677,27.677,0,0,1,10.2-10.886,55.455,55.455,0,0,1,7.134-3.963,46.915,46.915,0,0,0,6.763-3.752,14.375,14.375,0,0,0,4.914-6.024,9.6,9.6,0,0,0-.211-7.451M34.022,251.089c-.317-.159-.686-.37-1-.528a48.552,48.552,0,0,1-5.866-3.223,5.849,5.849,0,0,0,4.386-.528,6.46,6.46,0,0,0,2.484-2.431Zm128.3-139.768h-14.69a98.991,98.991,0,0,0-3.963-19.974A84.375,84.375,0,0,0,139.655,81.2h12.206a62.084,62.084,0,0,1,10.463,30.12M155.93,224.668a1.216,1.216,0,0,0-.951-.423,1.292,1.292,0,0,0-.952.423c-1.9,1.849-3.8,3.752-5.707,5.6V200.73H162.43v30.279c-2.114-2.167-4.28-4.333-6.5-6.341m4.967,8.56H149.325c1.9-1.9,3.8-3.752,5.759-5.654,1.9,1.9,3.858,3.752,5.813,5.654m-15.06-105.262a8.646,8.646,0,0,0,1.955-2.748,5.214,5.214,0,0,0,.528-1.427,7.725,7.725,0,0,0-.159-4.65,6.784,6.784,0,0,0-3.223-4.016H152.6a5.355,5.355,0,0,0-1.427,1.268,6.148,6.148,0,0,0-1.11,6.13,5.408,5.408,0,0,0,5.813,3.382,4.757,4.757,0,0,0,3.8-4.967,1.4,1.4,0,0,0-1.373-1.374c-.687,0-1.48.634-1.374,1.374a2,2,0,0,1-2.8,2.114,2.927,2.927,0,0,1-1.532-3.593,3.543,3.543,0,0,1,3.223-2.589,4.437,4.437,0,0,1,3.911,1.955c2.008,3.276.052,7.028-3.118,8.613-.476.211-.9.423-1.373.581Zm-8.4,96.755a1.216,1.216,0,0,0-.951-.423,1.292,1.292,0,0,0-.952.423c-2.008,1.9-3.963,3.8-5.918,5.76V200.73h15.007V231.7c-2.378-2.431-4.7-4.756-7.186-6.975m4.914,8.508H130.777c1.9-1.9,3.858-3.752,5.76-5.654l5.813,5.654m-12.682-70.7h15.007v34.4H129.667Zm0-3.646s-.106-23.462-.106-24.625c2.008,1.955,3.963,3.91,6.025,5.866a1.215,1.215,0,0,0,.951.423,1.29,1.29,0,0,0,.951-.423c2.431-2.325,4.809-4.65,7.239-7.028,0,2.959,0,25.734-.052,25.787Zm-10.674,65.789a1.215,1.215,0,0,0-.951-.423,1.29,1.29,0,0,0-.951.423c-2.114,2.008-4.122,4.016-6.289,6.13v-30.12h15.166v30.807c-2.378-2.272-4.7-4.6-6.975-6.817m4.809,8.56H112.229c1.956-1.9,3.857-3.752,5.76-5.654,2.008,1.9,3.857,3.752,5.813,5.654m-13-70.7h15.166v34.348H110.8Zm.106-3.7-.158-24.942c2.114,2.061,4.174,4.122,6.393,6.235a1.215,1.215,0,0,0,.951.423,1.292,1.292,0,0,0,.952-.423c2.272-2.272,4.6-4.492,6.87-6.711,0,2.114.105,25.417.105,25.417Zm-10.462,65.789a1.608,1.608,0,0,0-.37-.264,1.606,1.606,0,0,0-.37.264c-2.219,2.167-4.386,4.333-6.605,6.447V200.625h13.951v30.437c-2.22-2.114-4.334-4.333-6.605-6.447m4.862,8.613H94.9c1.69-1.691,3.435-3.382,5.178-5.073q2.7,2.536,5.232,5.073m-22.194-8.613a1.281,1.281,0,0,0-1.9,0l-6.975,6.817V200.625H89.4V230.8c-2.061-2.061-4.122-4.175-6.288-6.183m4.862,8.613H76.4l5.813-5.654c1.9,1.9,3.857,3.752,5.759,5.654m-13.792-70.65H89.4v34.348H74.183Zm-9.67,62.037a1.282,1.282,0,0,0-1.9,0l-7.134,6.975V200.625H70.484v29.75c-1.9-1.9-3.857-3.858-5.971-5.76m4.914,8.613H57.8c1.956-1.9,3.91-3.752,5.813-5.654,1.9,1.9,3.91,3.752,5.813,5.654m-13.9-70.7H70.537v34.4H55.53Zm0-3.646s-.053-22.775-.053-25.787c2.431,2.325,4.862,4.7,7.239,7.028a1.281,1.281,0,0,0,1.9,0l6.024-5.866c0,1.163-.106,24.572-.106,24.625ZM44.908,127.913c-.475-.159-.9-.37-1.374-.581-3.171-1.585-5.126-5.337-3.118-8.613a4.559,4.559,0,0,1,3.91-1.955,3.612,3.612,0,0,1,3.223,2.589,2.905,2.905,0,0,1-1.532,3.593,1.981,1.981,0,0,1-2.748-2.114c.106-.74-.686-1.374-1.374-1.374a1.436,1.436,0,0,0-1.374,1.374,4.665,4.665,0,0,0,3.8,4.967,5.407,5.407,0,0,0,5.813-3.382,6.171,6.171,0,0,0-1.11-6.13A6.469,6.469,0,0,0,47.6,115.02h7.662a7.108,7.108,0,0,0-3.224,4.016,8.361,8.361,0,0,0-.159,4.7c.159.476.317.951.528,1.427a8.663,8.663,0,0,0,1.955,2.748Zm5.918,3.7c-1.9,1.9-3.8,3.752-5.707,5.6-1.9-1.9-3.8-3.752-5.706-5.6Zm4.333-12.841a3.377,3.377,0,0,1,.687-.793,4.994,4.994,0,0,1,3.065-1.215,3.614,3.614,0,0,1,3.224,2.589,2.906,2.906,0,0,1-1.533,3.593,1.98,1.98,0,0,1-2.748-2.114c.106-.74-.687-1.374-1.374-1.374a1.2,1.2,0,0,0-.845.317,1.466,1.466,0,0,0-.528,1.057,4.363,4.363,0,0,0,.423,2.325,4.984,4.984,0,0,0,3.435,2.642,5.408,5.408,0,0,0,5.813-3.382,6.171,6.171,0,0,0-1.11-6.13,8.169,8.169,0,0,0-1.427-1.268h8.243a8.058,8.058,0,0,0-2.906,10.2,9.441,9.441,0,0,0,1.9,2.748H59.6c-.476-.159-.9-.37-1.374-.581a8.184,8.184,0,0,1-2.694-2.325,5.482,5.482,0,0,1-.37-6.288m19.6-28.482c-1.11,5.971-2.008,12-2.695,18.019-.106.951-.211,1.955-.317,2.959H56.269c1.11-10.516,3.488-20.714,8.4-30.12H76.825c-.74,3.065-1.374,6.13-2.061,9.142m4.7-4.016q.556-2.536,1.268-5.073h9.617c-.106,1-.159,2.061-.211,3.118-.476,8.983-.476,18.019-.476,27H75.557c.264-2.536.582-5.126.9-7.662.74-5.866,1.744-11.625,3.012-17.385M69.374,131.612c-1.9,1.9-3.8,3.752-5.707,5.6-1.9-1.9-3.8-3.752-5.707-5.6Zm.952-12.894a2.743,2.743,0,0,1,.9-1,5.1,5.1,0,0,1,3.012-.951,4.079,4.079,0,0,1,.793.106,3.8,3.8,0,0,1,2.431,2.484,2.906,2.906,0,0,1-1.533,3.593,1.821,1.821,0,0,1-1.268.159,2.162,2.162,0,0,1-1.48-2.272c.106-.74-.687-1.374-1.374-1.374a1.255,1.255,0,0,0-.634.159,1.672,1.672,0,0,0-.74,1.268,4.425,4.425,0,0,0,.528,2.589,4.877,4.877,0,0,0,3.276,2.378c.106,0,.211.053.318.053a5.5,5.5,0,0,0,5.5-3.435,6.17,6.17,0,0,0-1.11-6.13,6.972,6.972,0,0,0-1.479-1.321H85.7a8.045,8.045,0,0,0-3.012,10.146,9.422,9.422,0,0,0,1.9,2.748H74.658c-.053-.053-.159-.053-.264-.106-.369-.159-.687-.317-1-.476a7.891,7.891,0,0,1-2.589-2.167,5.563,5.563,0,0,1-.475-6.447m17.6,12.894c-1.9,1.9-3.8,3.752-5.706,5.6-1.9-1.9-3.805-3.752-5.708-5.6ZM89.3,158.826H74.183s.106-23.3.106-25.417c2.272,2.272,4.6,4.492,6.87,6.711a1.281,1.281,0,0,0,1.9,0c2.167-2.061,4.227-4.122,6.394-6.235Zm-.687-31.388c-3.171-1.585-5.126-5.337-3.118-8.613a4.481,4.481,0,0,1,3.91-2.008h.159a3.5,3.5,0,0,1,3.012,2.536,2.9,2.9,0,0,1-1.532,3.593,1.742,1.742,0,0,1-1.532.053,2.125,2.125,0,0,1-1.215-2.167c.105-.74-.687-1.374-1.374-1.374a1.437,1.437,0,0,0-1.374,1.374,4.664,4.664,0,0,0,3.805,4.967.4.4,0,0,0,.211.053,5.146,5.146,0,0,0,3.7-1,5.768,5.768,0,0,0,1.9-2.431,6.171,6.171,0,0,0-1.11-6.13,10.144,10.144,0,0,0-.793-.74,3.378,3.378,0,0,0-.687-.528h6.394v12.946H89.877c-.106-.053-.264-.106-.37-.159-.264-.106-.581-.264-.9-.37m4.7-16.117c0-8.085.052-16.223.369-24.308.106-1.955.211-3.857.317-5.813h12.207c.159,1.955.264,3.857.318,5.813.317,8.085.37,16.223.37,24.308H93.312Zm11.89,20.292c-1.691,1.691-3.435,3.329-5.126,5.02-1.691-1.691-3.435-3.329-5.126-5.02H105.2Zm-5.126,65.313H93.1V162.578h13.951v34.348Zm.053-38.1H93.1l.159-25.047c2.167,2.114,6.605,6.447,6.659,6.5a.451.451,0,0,0,.37,0c.052-.053,4.544-4.386,6.658-6.5.053,8.3.106,16.7.159,25.047Zm6.764-30.913h-5.654v-13h6.447a3.77,3.77,0,0,0-.74.528,3.273,3.273,0,0,0-.74.74,6.15,6.15,0,0,0-1.11,6.13,5.682,5.682,0,0,0,1.9,2.431,4.911,4.911,0,0,0,3.7,1,.2.2,0,0,1,.159-.053,4.757,4.757,0,0,0,3.8-4.967,1.4,1.4,0,0,0-1.374-1.374c-.686,0-1.479.634-1.373,1.374a2.056,2.056,0,0,1-1.216,2.167,1.741,1.741,0,0,1-1.532-.053,2.928,2.928,0,0,1-1.533-3.593,3.512,3.512,0,0,1,3.012-2.536h.159a4.673,4.673,0,0,1,3.911,2.008c2.007,3.276.052,7.028-3.118,8.613a7.455,7.455,0,0,1-.951.423,2.154,2.154,0,0,1-.37.106Zm16.856-24.255c.37,2.536.634,5.126.9,7.662H110.538c0-9.036,0-18.019-.475-27-.053-1-.106-2.061-.212-3.118h9.618q.713,2.536,1.268,5.073c1.268,5.707,2.273,11.52,3.012,17.385m-.423-22.511H135.48c4.914,9.353,7.292,19.6,8.4,30.12H128.346c-.106-.951-.211-1.955-.317-2.959-.687-6.024-1.585-12-2.7-18.019-.581-3.012-1.215-6.077-2.008-9.142m.423,50.465c-1.9,1.9-3.8,3.752-5.707,5.6-1.9-1.9-3.8-3.752-5.706-5.6Zm1.849-3.7a.778.778,0,0,0-.211.106c-.159.053-9.617,0-9.935,0a10.208,10.208,0,0,0,1.9-2.748,8.019,8.019,0,0,0-2.96-10.2h8.244a6.987,6.987,0,0,0-1.48,1.321,6.149,6.149,0,0,0-1.11,6.13,5.5,5.5,0,0,0,5.5,3.435c.106,0,.211-.053.317-.053a4.874,4.874,0,0,0,3.276-2.378,4.417,4.417,0,0,0,.528-2.589,1.507,1.507,0,0,0-.74-1.268,1.125,1.125,0,0,0-.634-.159c-.687,0-1.48.634-1.374,1.374a2.021,2.021,0,0,1-1.48,2.272,1.574,1.574,0,0,1-1.268-.159,2.927,2.927,0,0,1-1.532-3.593,3.693,3.693,0,0,1,2.43-2.484,4.079,4.079,0,0,1,.793-.106,5.1,5.1,0,0,1,3.012.951,4.19,4.19,0,0,1,.9,1,5.55,5.55,0,0,1-.476,6.447,7.385,7.385,0,0,1-3.117,2.431,6.157,6.157,0,0,0-.582.264m5.232,3.7h11.413c-1.9,1.9-3.8,3.752-5.707,5.6-1.849-1.849-3.8-3.752-5.706-5.6m13.739-6.552a7.191,7.191,0,0,1-2.7,2.325c-.475.211-.9.423-1.374.581h-9.882a10.2,10.2,0,0,0,1.9-2.748,7.945,7.945,0,0,0-2.906-10.2h8.243a5.363,5.363,0,0,0-1.427,1.268,6.149,6.149,0,0,0-1.109,6.13,5.407,5.407,0,0,0,5.813,3.382,4.759,4.759,0,0,0,3.381-2.642,3.993,3.993,0,0,0,.423-2.325,1.841,1.841,0,0,0-.528-1.057,1.2,1.2,0,0,0-.846-.317c-.687,0-1.48.634-1.373,1.374a1.959,1.959,0,0,1-2.748,2.114,2.929,2.929,0,0,1-1.532-3.593,3.544,3.544,0,0,1,3.224-2.589,4.94,4.94,0,0,1,3.223,1.163,3.365,3.365,0,0,1,.687.793,5.394,5.394,0,0,1-.475,6.341m16.223,6.552c-1.9,1.9-3.8,3.752-5.708,5.6-1.9-1.9-3.8-3.752-5.707-5.6Zm-16.7-59.976a66.787,66.787,0,0,1,5.179,5.813H137.7a56.7,56.7,0,0,0-9.882-12.788c-3.7-3.54-11.2-9.089-11.2-9.089a62.259,62.259,0,0,1,27.478,16.064m-11.52,4.6c.212.423.476.793.74,1.215h-11.1c-.37-1.268-.793-2.536-1.269-3.752a53.406,53.406,0,0,0-9.3-16.011,52.591,52.591,0,0,1,20.925,18.548M115.4,70.1a59.145,59.145,0,0,1,2.959,7.345h-8.772a87.7,87.7,0,0,0-4.333-20.926A39.69,39.69,0,0,1,115.4,70.1M100.075,55.572S105.148,70,105.888,77.5H94.263c.845-7.5,5.813-21.93,5.813-21.93m-5.02.951a91.551,91.551,0,0,0-4.333,20.926H81.9A51.779,51.779,0,0,1,84.8,70.1,39.321,39.321,0,0,1,95.055,56.523M88.5,57.686A53.878,53.878,0,0,0,79.2,73.7c-.476,1.215-.951,2.484-1.321,3.752h-11.1c.264-.37.528-.793.793-1.215A54.047,54.047,0,0,1,88.5,57.686m-32.34,14A62.288,62.288,0,0,1,83.641,55.572s-7.5,5.548-11.2,9.089A59.438,59.438,0,0,0,62.557,77.5H50.985a54.91,54.91,0,0,1,5.179-5.813M48.29,81.148H60.55a64.261,64.261,0,0,0-4.017,10.146,99.1,99.1,0,0,0-3.963,19.974H37.88a62.965,62.965,0,0,1,10.41-30.12M37.774,133.832c2.167,2.114,4.227,4.122,6.447,6.288a1.281,1.281,0,0,0,1.9,0c1.849-1.849,3.752-3.7,5.654-5.548,0,2.272.053,24.308.053,24.308H37.774Zm-.053,28.746H51.83v34.348H37.721Zm8.4,62.037a1.281,1.281,0,0,0-1.9,0c-2.166,2.114-4.333,4.122-6.447,6.288V200.625H51.831v29.592c-1.9-1.9-3.858-3.8-5.708-5.6m4.809,8.613H39.307c1.956-1.9,3.91-3.752,5.813-5.654l5.813,5.654m-13.211,3.646h7.715a6.924,6.924,0,0,1,1.48,0H83.589c-4.7,1.268-8.507,4.6-12.524,7.187a15.39,15.39,0,0,1-7.345,2.748,5.069,5.069,0,0,1-4.492-2.167,4.422,4.422,0,0,0,2.325-.634,3.189,3.189,0,0,0,.053-5.6c-2.167-1.11-4.227.264-5.232,2.167-.687-.476-1.268-.951-1.585-1.11a19.263,19.263,0,0,0-7.874-2.589h-1.48a8.958,8.958,0,0,0-5.5,2.219,7.6,7.6,0,0,0-2.22,3.7v-5.918Zm21.084,4.967a1.979,1.979,0,0,1,.37-.634,1.117,1.117,0,0,1,.9-.423c.264.053.528.159.423.423-.317.74-.951.845-1.691.634m-21.084,4.28a5.708,5.708,0,0,0,3.382,3.752H37.721Zm6.817,11.52a44.856,44.856,0,0,0-4.967-3.54,9.874,9.874,0,0,1-1-.581h9.882a7.309,7.309,0,0,0-3.91,4.122m10.833-1.849a1.664,1.664,0,0,0-.264.528,6.092,6.092,0,0,0-3.118-2.748h4.967a10.665,10.665,0,0,0-1.585,2.219m20.82-1.849a5.478,5.478,0,0,0-1.8,3.54,27.566,27.566,0,0,0-2.483-1.849,4.137,4.137,0,0,0,.739-.264,2.74,2.74,0,0,0,1.427-1.849h2.484a.943.943,0,0,0-.37.423m-31.547-4.069a4.647,4.647,0,0,0,2.325-6.711,4.25,4.25,0,0,0-4.175-2.219c-.317.053-.581.106-.9.159a7.214,7.214,0,0,1,5.39-1.374,17.224,17.224,0,0,1,7.556,3.065c.37.211.74.476,1.11.687a7.645,7.645,0,0,0,1.956,3.91,8.368,8.368,0,0,0,6.87,2.167c5.548-.581,9.828-4.65,14.373-7.5,4.016-2.536,9.987-4.6,13.739-.476a4.464,4.464,0,0,1,.634,5.284c-.9,1.532-3.488,2.536-4.544.634-.528-.951.581-2.114,1.374-1.215,1.163,1.374,3.118-.634,1.955-1.955-1.585-1.8-4.333-1.215-5.654.528-1.215,1.532-.634,3.593.582,4.967v.053Zm51.891,9.987c-2.061,1.744-5.072,1.163-7.186-.211-2.326-1.532-3.752-3.963-5.972-5.654-.211-.159-.476-.317-.74-.476h7.979a4.094,4.094,0,0,0,.74,5.39,3.466,3.466,0,0,0,5.5-1.9,1.561,1.561,0,0,0-1-1.849,1.514,1.514,0,0,0-1.849,1,.552.552,0,0,1-.9.423c-.634-.528-.052-1.638.528-1.955a2.626,2.626,0,0,1,2.642.053,3.088,3.088,0,0,1,.264,5.179m3.54-5.179a7.255,7.255,0,0,0-.686-1.057h1.373a4.075,4.075,0,0,0-.687,1.057m0-4.862h-5.6a2.276,2.276,0,0,0,.37-.317,7.161,7.161,0,0,0,1.8-6.13c-.581-3.435-3.276-5.6-6.394-6.5h19.711c-3.118.9-5.813,3.118-6.394,6.5a7.261,7.261,0,0,0,1.8,6.13l.317.317ZM116.721,254c-2.219,1.691-3.646,4.069-5.971,5.654-2.061,1.374-5.126,1.955-7.187.211a3.113,3.113,0,0,1,.318-5.179,2.626,2.626,0,0,1,2.642-.053c.581.317,1.215,1.374.528,1.955a.553.553,0,0,1-.9-.423,1.471,1.471,0,0,0-1.849-1,1.514,1.514,0,0,0-1,1.849c.423,2.431,3.646,3.382,5.5,1.9a4.03,4.03,0,0,0,.74-5.39h7.979l-.793.476m9.2,3.435a5.874,5.874,0,0,0-1.8-3.54,3.045,3.045,0,0,0-.422-.37h2.484a2.632,2.632,0,0,0,1.426,1.849,3.056,3.056,0,0,0,.74.264c-.793.634-1.585,1.215-2.43,1.8m19.182-1.11a5.008,5.008,0,0,0-.264-.528,11.274,11.274,0,0,0-1.585-2.219h4.967a6.088,6.088,0,0,0-3.117,2.748m-32.023-6.552c1.163-1.321,1.744-3.435.582-4.967a3.691,3.691,0,0,0-5.655-.528c-1.215,1.321.793,3.329,1.956,1.955.793-.845,1.9.264,1.373,1.215-1.057,1.955-3.7.9-4.544-.634a4.547,4.547,0,0,1,.581-5.284c3.752-4.069,9.724-2.061,13.739.476,4.545,2.853,8.825,6.922,14.373,7.5a8.145,8.145,0,0,0,6.87-2.167,7.653,7.653,0,0,0,1.956-3.91c.422-.211.739-.476,1.109-.687a16.624,16.624,0,0,1,7.556-3.065,6.993,6.993,0,0,1,5.39,1.374c-.264-.053-.581-.106-.9-.159a4.16,4.16,0,0,0-4.174,2.219,4.986,4.986,0,0,0,.211,5.073,4.574,4.574,0,0,0,2.009,1.585h.105v.053c-.053,0-.053-.053-.105-.053Zm47.558,4.386a56.125,56.125,0,0,0-4.967,3.54,6.716,6.716,0,0,0-3.963-4.069h9.934a3.662,3.662,0,0,0-1,.528m1.849-4.333H159.1a5.774,5.774,0,0,0,3.435-3.752v3.752Zm0-7.028a7.59,7.59,0,0,0-2.219-3.7,9.027,9.027,0,0,0-5.5-2.219h-1.479a17.816,17.816,0,0,0-7.874,2.589c-.317.211-.9.634-1.585,1.11-1-1.9-3.117-3.329-5.231-2.167a3.189,3.189,0,0,0,.052,5.6,3.985,3.985,0,0,0,2.326.634,5.163,5.163,0,0,1-4.545,2.167,15.052,15.052,0,0,1-7.345-2.748c-4.017-2.589-7.874-5.971-12.524-7.187h36.726a6.919,6.919,0,0,1,1.479,0h7.715Zm-21.084-.951a1.353,1.353,0,0,1-1.691-.634c-.106-.264.159-.37.423-.423a.994.994,0,0,1,.9.423,3.985,3.985,0,0,1,.37.634m21.084-44.969H148.374V162.525h14.108Zm0-37.994H148.374s.052-22.035.052-24.308l5.707,5.548a1.215,1.215,0,0,0,.951.423,1.292,1.292,0,0,0,.952-.423c2.166-2.114,4.227-4.122,6.446-6.288Zm4.756,91.682c-.317.159-.634.37-1,.528v-6.711a6.142,6.142,0,0,0,6.87,2.959,42.2,42.2,0,0,1-5.866,3.223" transform="translate(34.673 -27.301)"/>
        <path class="cls-4" d="M81.845,258.065c-.634-.264-1-.053-.793.423a3.031,3.031,0,0,1-.793,3.382c-1.955,2.167-4.492,1.48-7.5-.845-3.382-2.695-8.93-8.455-13.633-5.073a5.142,5.142,0,0,0-2.008,3.223c-.106.845-.211,2.378,1.057,2.007a1.309,1.309,0,0,0,.37-.211c.634-.476.687-1.374,1.163-2.008a2.171,2.171,0,0,1,2.695-.476,3.255,3.255,0,0,1,1.9,2.589c.106,1.215-.211,2.589.423,3.752.264.528,1.163.264,1.532-.053.211-.211.528-.37.74.159.159.528,1.849,1.48,2.378,2.06.528.635,1,.106,1.163-.264a5.8,5.8,0,0,0-.264-4.65c-.211-.423-.053-.74.37-.264a10.457,10.457,0,0,1,1.48,3.435,5.02,5.02,0,0,0,2.484,2.853c.687.159,1.9.423,2.114.845.211.37.476.476.687.264a2.384,2.384,0,0,0,.423-1.8,5.29,5.29,0,0,0-.9-2.061c-.264-.37-.264-.793.423-.476a5.252,5.252,0,0,0,4.544-.528c2.114-1.215,2.325-5.072-.053-6.288" transform="translate(34.673 -27.301)"/>
        <path class="cls-4" d="M140.447,258.963c.475.634.528,1.532,1.162,2.008a.849.849,0,0,0,.37.211c1.269.37,1.163-1.162,1.057-2.008a5.139,5.139,0,0,0-2.007-3.223c-4.7-3.329-10.252,2.378-13.633,5.072-3.012,2.326-5.548,3.013-7.5.846a3.03,3.03,0,0,1-.793-3.382c.211-.476-.159-.687-.793-.423-2.326,1.109-2.114,4.967-.053,6.183a5.257,5.257,0,0,0,4.544.528c.686-.318.686.105.422.475a5.307,5.307,0,0,0-.9,2.061,2.644,2.644,0,0,0,.423,1.8c.211.212.475.106.687-.264.211-.423,1.427-.687,2.114-.845a4.847,4.847,0,0,0,2.484-2.854,11.721,11.721,0,0,1,1.48-3.435c.423-.475.581-.159.37.264a5.8,5.8,0,0,0-.264,4.651c.159.369.634.9,1.162.264.528-.582,2.219-1.532,2.378-2.061.212-.528.528-.37.74-.159.37.317,1.268.581,1.532.052.634-1.163.264-2.536.423-3.751a3.256,3.256,0,0,1,1.9-2.59,2.35,2.35,0,0,1,2.7.582" transform="translate(34.673 -27.301)"/>
        <path class="cls-4" d="M104.673,238.037H95.478s5.02,3.329,1.744,10.2h5.707c-3.223-6.87,1.744-10.2,1.744-10.2" transform="translate(34.673 -27.301)"/>
      </g>
    </g>
  </g>
</svg>
